HIERARCHY
ROOT joint_Root
{
	OFFSET 0.0 0.0 0.0
	CHANNELS 6 Xposition Yposition Zposition Zrotation Xrotation Yrotation 
	JOINT Hips
	{
		OFFSET 4.5925 91.4895 -427.239
		CHANNELS 6 Xposition Yposition Zposition Zrotation Xrotation Yrotation 
		JOINT Spine
		{
			OFFSET 15.7357 0.0 0.0
			CHANNELS 6 Xposition Yposition Zposition Zrotation Xrotation Yrotation 
			JOINT Chest
			{
				OFFSET 8.98455 -0.406207 0.0
				CHANNELS 6 Xposition Yposition Zposition Zrotation Xrotation Yrotation 
				JOINT Neck
				{
					OFFSET 16.3773 0.0 0.0
					CHANNELS 6 Xposition Yposition Zposition Zrotation Xrotation Yrotation 
					JOINT Head
					{
						OFFSET 6.45672 0.0 0.0
						CHANNELS 6 Xposition Yposition Zposition Zrotation Xrotation Yrotation 
						End Site
						{
							OFFSET 0.0 0.0 0.0
						}
					}
				}
				JOINT Shoulder_L
				{
					OFFSET 12.9942 -0.242716 4.98039
					CHANNELS 6 Xposition Yposition Zposition Zrotation Xrotation Yrotation 
					JOINT UpperArm_L
					{
						OFFSET 5.34809 0.0 0.0
						CHANNELS 6 Xposition Yposition Zposition Zrotation Xrotation Yrotation 
						JOINT LowerArm_L
						{
							OFFSET 24.3286 1.87007e-05 0.0
							CHANNELS 6 Xposition Yposition Zposition Zrotation Xrotation Yrotation 
							JOINT Hand_L
							{
								OFFSET 22.2916 0.0 0.0
								CHANNELS 6 Xposition Yposition Zposition Zrotation Xrotation Yrotation 
								End Site
								{
									OFFSET 0.0 0.0 0.0
								}
							}
						}
					}
				}
				JOINT Shoulder_R
				{
					OFFSET 12.9945 -0.242716 -4.98039
					CHANNELS 6 Xposition Yposition Zposition Zrotation Xrotation Yrotation 
					JOINT UpperArm_R
					{
						OFFSET -5.34813 0.0 0.0
						CHANNELS 6 Xposition Yposition Zposition Zrotation Xrotation Yrotation 
						JOINT LowerArm_R
						{
							OFFSET -24.3289 0.000322201 0.0
							CHANNELS 6 Xposition Yposition Zposition Zrotation Xrotation Yrotation 
							JOINT Hand_R
							{
								OFFSET -22.2915 -0.000108084 0.0
								CHANNELS 6 Xposition Yposition Zposition Zrotation Xrotation Yrotation 
								End Site
								{
									OFFSET 0.0 0.0 0.0
								}
							}
						}
					}
				}
			}
		}
		JOINT UpperLeg_L
		{
			OFFSET -2.19248 -6.46944 0.0
			CHANNELS 6 Xposition Yposition Zposition Zrotation Xrotation Yrotation 
			JOINT LowerLeg_L
			{
				OFFSET 39.0811 0.0 -1.23785e-05
				CHANNELS 6 Xposition Yposition Zposition Zrotation Xrotation Yrotation 
				JOINT Foot_L
				{
					OFFSET 40.9854 0.0 -1.26872e-05
					CHANNELS 6 Xposition Yposition Zposition Zrotation Xrotation Yrotation 
					JOINT Toes_L
					{
						OFFSET 11.7543 0.0 0.0
						CHANNELS 6 Xposition Yposition Zposition Zrotation Xrotation Yrotation 
						End Site
						{
							OFFSET 0.0 0.0 0.0
						}
					}
				}
			}
		}
		JOINT UpperLeg_R
		{
			OFFSET -2.19251 6.46944 0.0
			CHANNELS 6 Xposition Yposition Zposition Zrotation Xrotation Yrotation 
			JOINT LowerLeg_R
			{
				OFFSET -39.0811 -0.00228153 -0.0401928
				CHANNELS 6 Xposition Yposition Zposition Zrotation Xrotation Yrotation 
				JOINT Foot_R
				{
					OFFSET -40.9854 0.0 0.0
					CHANNELS 6 Xposition Yposition Zposition Zrotation Xrotation Yrotation 
					JOINT Toes_R
					{
						OFFSET -11.7543 0.0 0.0
						CHANNELS 6 Xposition Yposition Zposition Zrotation Xrotation Yrotation 
						End Site
						{
							OFFSET 0.0 0.0 0.0
						}
					}
				}
			}
		}
	}
}
MOTION
Frames:	4
Frame Time:	0.0333333
0.000000 0.000000 0.000000 0.000000 0.000000 -0.000000 -210.417000 89.750300 191.101000 108.081000 77.298900 -22.248700 15.735700 0.000005 -0.000001 123.885000 82.618500 -125.479000 8.984550 -0.406207 -0.000000 4.645830 8.259750 -3.523360 16.377300 -0.000001 -0.000001 3.893630 -0.023783 0.607475 6.456720 -0.000001 -0.000000 -2.300220 -3.327790 1.329100 12.994200 -0.242716 4.980390 -85.421300 -10.819800 -66.896400 5.348090 -0.000007 -0.000001 -83.703400 46.619300 44.966700 24.328600 0.000019 0.000005 11.603000 5.449590 -65.181000 22.291600 -0.000001 0.000005 13.199100 5.551280 -8.776100 12.994500 -0.242716 -4.980390 90.276000 -1.635210 -80.415300 -5.348130 -0.000001 -0.000004 -58.241500 24.463500 -45.405500 -24.328900 0.000322 -0.000009 -6.388300 4.452350 -124.742000 -22.291500 -0.000108 -0.000004 32.957100 5.665220 -16.694600 -2.192480 -6.469440 -0.000000 175.582000 -4.281200 -35.427700 39.081100 -0.000007 -0.000012 0.018748 -0.016103 49.334000 40.985400 -0.000006 -0.000013 2.580970 -3.022400 -67.304200 11.754300 -0.000000 0.000003 -0.004862 -0.060127 -19.023100 -2.192510 6.469440 -0.000001 171.393000 17.739200 -177.787000 -39.081100 -0.002282 -0.040193 -0.001306 0.008535 28.383100 -40.985400 0.000008 0.000006 7.147100 13.188800 -71.730800 -11.754300 -0.000006 -0.000006 -0.038331 -0.253389 -26.977100
0.000000 0.000000 0.000000 0.000000 0.000000 -0.000000 -207.250000 89.174400 191.207000 104.009000 77.167200 -18.836500 15.735700 0.000005 -0.000001 123.922000 82.590300 -125.488000 8.984550 -0.406207 -0.000000 4.686250 8.297490 -3.472270 16.377300 -0.000001 -0.000001 2.376170 -0.087921 0.324913 6.456720 -0.000001 -0.000000 -3.361030 -3.342250 0.835325 12.994200 -0.242716 4.980390 -85.453200 -10.838700 -67.076900 5.348090 -0.000007 -0.000001 -81.713700 41.900300 42.490400 24.328600 0.000019 0.000005 9.899460 3.670320 -69.863700 22.291600 -0.000001 0.000005 14.574700 5.531690 -7.871950 12.994500 -0.242716 -4.980390 90.306600 -1.899810 -80.832200 -5.348130 -0.000001 -0.000004 -58.697300 27.536300 -40.166900 -24.328900 0.000322 -0.000009 -8.691730 4.976710 -119.591000 -22.291500 -0.000108 -0.000004 31.595200 5.657480 -15.740400 -2.192480 -6.469440 -0.000000 175.703000 -5.654200 -34.862800 39.081100 -0.000007 -0.000012 0.013494 -0.015221 41.554200 40.985400 -0.000006 -0.000013 1.643570 -2.742290 -68.439800 11.754300 -0.000000 0.000003 -0.004686 -0.058407 -18.953000 -2.192510 6.469440 -0.000001 170.952000 17.943500 -176.482000 -39.081100 -0.002282 -0.040193 -0.004656 0.014524 28.728800 -40.985400 0.000008 0.000006 7.046990 14.815900 -70.954300 -11.754300 -0.000006 -0.000006 -0.056342 -0.319693 -29.762700
0.000000 0.000000 0.000000 0.000000 0.000000 -0.000000 -203.730000 88.019800 191.385000 99.678500 76.937900 -14.631300 15.735700 0.000005 -0.000001 122.074000 82.444200 -123.580000 8.984550 -0.406207 -0.000000 5.187240 8.041610 -3.376680 16.377300 -0.000001 -0.000001 0.863363 -0.003366 0.351774 6.456720 -0.000001 -0.000000 -4.776320 -3.108420 0.743205 12.994200 -0.242716 4.980390 -86.194800 -9.322880 -67.679700 5.348090 -0.000007 -0.000001 -79.023700 36.914700 38.941000 24.328600 0.000019 0.000005 8.818630 2.259930 -75.741800 22.291600 -0.000001 0.000005 16.215200 5.517400 -7.253670 12.994500 -0.242716 -4.980390 90.067600 -0.460215 -81.681800 -5.348130 -0.000001 -0.000004 -59.697800 30.683000 -32.971900 -24.328900 0.000322 -0.000009 -14.289300 5.715790 -111.392000 -22.291500 -0.000108 -0.000004 28.701700 5.639790 -14.010700 -2.192480 -6.469440 -0.000000 174.849000 -9.518060 -35.878000 39.081100 -0.000007 -0.000012 0.034687 -0.040174 40.806200 40.985400 -0.000006 -0.000013 1.804400 -5.226340 -67.904500 11.754300 -0.000000 0.000003 -0.004856 -0.060071 -19.020800 -2.192510 6.469440 -0.000001 171.292000 15.318100 -175.568000 -39.081100 -0.002282 -0.040193 0.002485 0.001351 31.095300 -40.985400 0.000008 0.000006 6.811560 13.555400 -71.008900 -11.754300 -0.000006 -0.000006 -0.080952 -0.394597 -32.959500
0.000000 0.000000 0.000000 0.000000 0.000000 -0.000000 -199.770000 86.674600 191.611000 97.304100 76.804000 -12.432500 15.735700 0.000005 -0.000001 118.853000 82.512900 -120.397000 8.984550 -0.406207 -0.000000 5.483450 7.240380 -3.434500 16.377300 -0.000001 -0.000001 -0.148268 0.161154 0.776017 6.456720 -0.000001 -0.000000 -6.173660 -2.887440 1.161580 12.994200 -0.242716 4.980390 -87.801400 -5.627920 -68.626200 5.348090 -0.000007 -0.000001 -75.072500 31.577800 33.956900 24.328600 0.000019 0.000005 7.134360 0.856398 -83.213100 22.291600 -0.000001 0.000005 15.675300 5.507530 -6.862970 12.994500 -0.242716 -4.980390 89.605100 2.993090 -82.476300 -5.348130 -0.000001 -0.000004 -61.468100 32.458200 -23.673700 -24.328900 0.000322 -0.000009 -21.529800 3.541670 -98.923400 -22.291500 -0.000108 -0.000004 22.844500 5.607420 -11.670200 -2.192480 -6.469440 -0.000000 174.157000 -13.400100 -37.708100 39.081100 -0.000007 -0.000012 -0.081176 0.078978 45.787400 40.985400 -0.000006 -0.000013 2.693770 -4.319070 -64.585000 11.754300 -0.000000 0.000003 -0.000892 -0.013862 -17.140600 -2.192510 6.469440 -0.000001 171.490000 12.846800 -175.680000 -39.081100 -0.002282 -0.040193 0.026220 -0.032111 35.530900 -40.985400 0.000008 0.000006 6.848650 11.834500 -70.078100 -11.754300 -0.000006 -0.000006 -0.134515 -0.523199 -38.609700
